<?xml version="1.0" encoding="UTF-8" standalone="no"?>
<!DOCTYPE svg PUBLIC "-//W3C//DTD SVG 1.1//EN"
 "http://www.w3.org/Graphics/SVG/1.1/DTD/svg11.dtd">
<!-- Generated by graphviz version 2.34.0 (20131213.2227)
 -->
<!-- Title: controllers_diagram Pages: 1 -->
<svg width="832pt" height="394pt"
 viewBox="0.00 0.00 832.02 394.19" xmlns="http://www.w3.org/2000/svg" xmlns:xlink="http://www.w3.org/1999/xlink">
<g id="graph0" class="graph" transform="scale(1 1) rotate(0) translate(4 390.193)">
<title>controllers_diagram</title>
<polygon fill="white" stroke="white" points="-4,4 -4,-390.193 828.024,-390.193 828.024,4 -4,4"/>
<!-- _diagram_info -->
<g id="node1" class="node"><title>_diagram_info</title>
<text text-anchor="start" x="385" y="-214" font-family="Times,serif" font-size="13.00">Controllers diagram</text>
<text text-anchor="start" x="385" y="-198.4" font-family="Times,serif" font-size="13.00">Date: Dec 15 2013 &#45; 22:58</text>
<text text-anchor="start" x="385" y="-182.8" font-family="Times,serif" font-size="13.00">Migration version: 20131213230341</text>
<text text-anchor="start" x="385" y="-167.2" font-family="Times,serif" font-size="13.00">Generated by RailRoady 1.1.1</text>
<text text-anchor="start" x="385" y="-151.6" font-family="Times,serif" font-size="13.00">http://railroady.prestonlee.com</text>
</g>
<!-- ApplicationController -->
<g id="node2" class="node"><title>ApplicationController</title>
<path fill="none" stroke="black" d="M12,-112.422C12,-112.422 127.642,-112.422 127.642,-112.422 133.642,-112.422 139.642,-118.422 139.642,-124.422 139.642,-124.422 139.642,-198.822 139.642,-198.822 139.642,-204.822 133.642,-210.822 127.642,-210.822 127.642,-210.822 12,-210.822 12,-210.822 6,-210.822 1.42109e-14,-204.822 1.42109e-14,-198.822 1.42109e-14,-198.822 1.42109e-14,-124.422 1.42109e-14,-124.422 1.42109e-14,-118.422 6,-112.422 12,-112.422"/>
<text text-anchor="middle" x="69.8208" y="-192.822" font-family="Times,serif" font-size="14.00">ApplicationController</text>
<polyline fill="none" stroke="black" points="1.42109e-14,-186.022 139.642,-186.022 "/>
<text text-anchor="start" x="8" y="-168.022" font-family="Times,serif" font-size="14.00">set_current_user</text>
<polyline fill="none" stroke="black" points="1.42109e-14,-161.222 139.642,-161.222 "/>
<polyline fill="none" stroke="black" points="1.42109e-14,-137.222 139.642,-137.222 "/>
<text text-anchor="start" x="8" y="-119.222" font-family="Times,serif" font-size="14.00">_layout</text>
</g>
<!-- EventsController -->
<g id="node3" class="node"><title>EventsController</title>
<path fill="none" stroke="black" d="M229.042,-109.219C229.042,-109.219 316.69,-109.219 316.69,-109.219 322.69,-109.219 328.69,-115.219 328.69,-121.219 328.69,-121.219 328.69,-330.019 328.69,-330.019 328.69,-336.019 322.69,-342.019 316.69,-342.019 316.69,-342.019 229.042,-342.019 229.042,-342.019 223.042,-342.019 217.042,-336.019 217.042,-330.019 217.042,-330.019 217.042,-121.219 217.042,-121.219 217.042,-115.219 223.042,-109.219 229.042,-109.219"/>
<text text-anchor="middle" x="272.866" y="-324.019" font-family="Times,serif" font-size="14.00">EventsController</text>
<polyline fill="none" stroke="black" points="217.042,-317.219 328.69,-317.219 "/>
<text text-anchor="start" x="225.042" y="-299.219" font-family="Times,serif" font-size="14.00">create</text>
<text text-anchor="start" x="225.042" y="-282.419" font-family="Times,serif" font-size="14.00">destroy</text>
<text text-anchor="start" x="225.042" y="-265.619" font-family="Times,serif" font-size="14.00">edit</text>
<text text-anchor="start" x="225.042" y="-248.819" font-family="Times,serif" font-size="14.00">index</text>
<text text-anchor="start" x="225.042" y="-232.019" font-family="Times,serif" font-size="14.00">new</text>
<text text-anchor="start" x="225.042" y="-215.219" font-family="Times,serif" font-size="14.00">show</text>
<text text-anchor="start" x="225.042" y="-198.419" font-family="Times,serif" font-size="14.00">update</text>
<polyline fill="none" stroke="black" points="217.042,-191.619 328.69,-191.619 "/>
<polyline fill="none" stroke="black" points="217.042,-167.619 328.69,-167.619 "/>
<text text-anchor="start" x="225.042" y="-149.619" font-family="Times,serif" font-size="14.00">_layout</text>
<text text-anchor="start" x="225.042" y="-132.819" font-family="Times,serif" font-size="14.00">event_params</text>
<text text-anchor="start" x="225.042" y="-116.019" font-family="Times,serif" font-size="14.00">set_event</text>
</g>
<!-- ApplicationController&#45;&gt;EventsController -->
<g id="edge1" class="edge"><title>ApplicationController&#45;&gt;EventsController</title>
<path fill="none" stroke="black" d="M139.697,-183.646C163.259,-191.072 189.346,-199.295 212.142,-206.48"/>
<polyline fill="none" stroke="black" points="216.955,-207.997 212.186,-206.493 "/>
</g>
<!-- HomeController -->
<g id="node4" class="node"><title>HomeController</title>
<path fill="none" stroke="black" d="M129.982,-0.5C129.982,-0.5 213.741,-0.5 213.741,-0.5 219.741,-0.5 225.741,-6.5 225.741,-12.5 225.741,-12.5 225.741,-86.9 225.741,-86.9 225.741,-92.9 219.741,-98.9 213.741,-98.9 213.741,-98.9 129.982,-98.9 129.982,-98.9 123.982,-98.9 117.982,-92.9 117.982,-86.9 117.982,-86.9 117.982,-12.5 117.982,-12.5 117.982,-6.5 123.982,-0.5 129.982,-0.5"/>
<text text-anchor="middle" x="171.861" y="-80.9" font-family="Times,serif" font-size="14.00">HomeController</text>
<polyline fill="none" stroke="black" points="117.982,-74.1 225.741,-74.1 "/>
<text text-anchor="start" x="125.982" y="-56.1" font-family="Times,serif" font-size="14.00">index</text>
<polyline fill="none" stroke="black" points="117.982,-49.3 225.741,-49.3 "/>
<polyline fill="none" stroke="black" points="117.982,-25.3 225.741,-25.3 "/>
<text text-anchor="start" x="125.982" y="-7.3" font-family="Times,serif" font-size="14.00">_layout</text>
</g>
<!-- ApplicationController&#45;&gt;HomeController -->
<g id="edge2" class="edge"><title>ApplicationController&#45;&gt;HomeController</title>
<path fill="none" stroke="black" d="M114.874,-112.205C117.59,-109.226 120.329,-106.222 123.06,-103.227"/>
<polyline fill="none" stroke="black" points="126.775,-99.1519 123.407,-102.847 "/>
</g>
<!-- UsersController -->
<g id="node6" class="node"><title>UsersController</title>
<path fill="none" stroke="black" d="M65.9303,-236.893C65.9303,-236.893 147.358,-236.893 147.358,-236.893 153.358,-236.893 159.358,-242.893 159.358,-248.893 159.358,-248.893 159.358,-373.693 159.358,-373.693 159.358,-379.693 153.358,-385.693 147.358,-385.693 147.358,-385.693 65.9303,-385.693 65.9303,-385.693 59.9303,-385.693 53.9303,-379.693 53.9303,-373.693 53.9303,-373.693 53.9303,-248.893 53.9303,-248.893 53.9303,-242.893 59.9303,-236.893 65.9303,-236.893"/>
<text text-anchor="middle" x="106.644" y="-367.693" font-family="Times,serif" font-size="14.00">UsersController</text>
<polyline fill="none" stroke="black" points="53.9303,-360.893 159.358,-360.893 "/>
<text text-anchor="start" x="61.9303" y="-342.893" font-family="Times,serif" font-size="14.00">destroy</text>
<text text-anchor="start" x="61.9303" y="-326.093" font-family="Times,serif" font-size="14.00">index</text>
<text text-anchor="start" x="61.9303" y="-309.293" font-family="Times,serif" font-size="14.00">show</text>
<text text-anchor="start" x="61.9303" y="-292.493" font-family="Times,serif" font-size="14.00">update</text>
<polyline fill="none" stroke="black" points="53.9303,-285.693 159.358,-285.693 "/>
<polyline fill="none" stroke="black" points="53.9303,-261.693 159.358,-261.693 "/>
<text text-anchor="start" x="61.9303" y="-243.693" font-family="Times,serif" font-size="14.00">_layout</text>
</g>
<!-- ApplicationController&#45;&gt;UsersController -->
<g id="edge4" class="edge"><title>ApplicationController&#45;&gt;UsersController</title>
<path fill="none" stroke="black" d="M81.9802,-211.044C83.6312,-217.755 85.3584,-224.775 87.0991,-231.85"/>
<polyline fill="none" stroke="black" points="88.3056,-236.754 87.111,-231.899 "/>
</g>
<!-- RegistrationsController -->
<g id="node5" class="node"><title>RegistrationsController</title>
<path fill="none" stroke="black" d="M389,-0.5C389,-0.5 522.504,-0.5 522.504,-0.5 528.504,-0.5 534.504,-6.5 534.504,-12.5 534.504,-12.5 534.504,-86.9 534.504,-86.9 534.504,-92.9 528.504,-98.9 522.504,-98.9 522.504,-98.9 389,-98.9 389,-98.9 383,-98.9 377,-92.9 377,-86.9 377,-86.9 377,-12.5 377,-12.5 377,-6.5 383,-0.5 389,-0.5"/>
<text text-anchor="middle" x="455.752" y="-80.9" font-family="Times,serif" font-size="14.00">RegistrationsController</text>
<polyline fill="none" stroke="black" points="377,-74.1 534.504,-74.1 "/>
<text text-anchor="start" x="385" y="-56.1" font-family="Times,serif" font-size="14.00">update_sanitized_params</text>
<polyline fill="none" stroke="black" points="377,-49.3 534.504,-49.3 "/>
<polyline fill="none" stroke="black" points="377,-25.3 534.504,-25.3 "/>
<text text-anchor="start" x="385" y="-7.3" font-family="Times,serif" font-size="14.00">_layout</text>
</g>
<!-- Devise::RegistrationsController -->
<g id="node7" class="node"><title>Devise::RegistrationsController</title>
<ellipse fill="none" stroke="black" cx="690.149" cy="-49.6998" rx="133.75" ry="18"/>
<text text-anchor="middle" x="690.149" y="-44.0998" font-family="Times,serif" font-size="14.00">Devise::RegistrationsController</text>
</g>
<!-- Devise::RegistrationsController&#45;&gt;RegistrationsController -->
<g id="edge3" class="edge"><title>Devise::RegistrationsController&#45;&gt;RegistrationsController</title>
<path fill="none" stroke="black" d="M556.178,-49.6999C550.717,-49.6999 545.306,-49.6999 539.993,-49.6999"/>
<polyline fill="none" stroke="black" points="534.714,-49.6999 539.714,-49.6998 "/>
</g>
</g>
</svg>
