<?xml version="1.0" encoding="UTF-8" standalone="no"?>
<!DOCTYPE svg PUBLIC "-//W3C//DTD SVG 1.1//EN"
 "http://www.w3.org/Graphics/SVG/1.1/DTD/svg11.dtd">
<!-- Generated by graphviz version 2.34.0 (20131213.2227)
 -->
<!-- Title: controllers_diagram Pages: 1 -->
<svg width="715pt" height="332pt"
 viewBox="0.00 0.00 715.02 332.14" xmlns="http://www.w3.org/2000/svg" xmlns:xlink="http://www.w3.org/1999/xlink">
<g id="graph0" class="graph" transform="scale(1 1) rotate(0) translate(4 328.14)">
<title>controllers_diagram</title>
<polygon fill="white" stroke="white" points="-4,4 -4,-328.14 711.024,-328.14 711.024,4 -4,4"/>
<!-- _diagram_info -->
<g id="node1" class="node"><title>_diagram_info</title>
<text text-anchor="start" x="320" y="-277" font-family="Times,serif" font-size="13.00">Controllers diagram</text>
<text text-anchor="start" x="320" y="-261.4" font-family="Times,serif" font-size="13.00">Date: Dec 13 2013 &#45; 18:12</text>
<text text-anchor="start" x="320" y="-245.8" font-family="Times,serif" font-size="13.00">Migration version: 20131213230341</text>
<text text-anchor="start" x="320" y="-230.2" font-family="Times,serif" font-size="13.00">Generated by RailRoady 1.1.1</text>
<text text-anchor="start" x="320" y="-214.6" font-family="Times,serif" font-size="13.00">http://railroady.prestonlee.com</text>
</g>
<!-- ApplicationController -->
<g id="node2" class="node"><title>ApplicationController</title>
<path fill="none" stroke="black" d="M12,-196.944C12,-196.944 127.642,-196.944 127.642,-196.944 133.642,-196.944 139.642,-202.944 139.642,-208.944 139.642,-208.944 139.642,-282.544 139.642,-282.544 139.642,-288.544 133.642,-294.544 127.642,-294.544 127.642,-294.544 12,-294.544 12,-294.544 6,-294.544 0,-288.544 0,-282.544 0,-282.544 0,-208.944 0,-208.944 0,-202.944 6,-196.944 12,-196.944"/>
<text text-anchor="middle" x="69.8208" y="-276.544" font-family="Times,serif" font-size="14.00">ApplicationController</text>
<polyline fill="none" stroke="black" points="0,-269.744 139.642,-269.744 "/>
<polyline fill="none" stroke="black" points="0,-245.744 139.642,-245.744 "/>
<polyline fill="none" stroke="black" points="0,-221.744 139.642,-221.744 "/>
<text text-anchor="start" x="8" y="-203.744" font-family="Times,serif" font-size="14.00">_layout</text>
</g>
<!-- HomeController -->
<g id="node3" class="node"><title>HomeController</title>
<path fill="none" stroke="black" d="M162.624,-225.24C162.624,-225.24 246.383,-225.24 246.383,-225.24 252.383,-225.24 258.383,-231.24 258.383,-237.24 258.383,-237.24 258.383,-311.64 258.383,-311.64 258.383,-317.64 252.383,-323.64 246.383,-323.64 246.383,-323.64 162.624,-323.64 162.624,-323.64 156.624,-323.64 150.624,-317.64 150.624,-311.64 150.624,-311.64 150.624,-237.24 150.624,-237.24 150.624,-231.24 156.624,-225.24 162.624,-225.24"/>
<text text-anchor="middle" x="204.503" y="-305.64" font-family="Times,serif" font-size="14.00">HomeController</text>
<polyline fill="none" stroke="black" points="150.624,-298.84 258.383,-298.84 "/>
<text text-anchor="start" x="158.624" y="-280.84" font-family="Times,serif" font-size="14.00">index</text>
<polyline fill="none" stroke="black" points="150.624,-274.04 258.383,-274.04 "/>
<polyline fill="none" stroke="black" points="150.624,-250.04 258.383,-250.04 "/>
<text text-anchor="start" x="158.624" y="-232.04" font-family="Times,serif" font-size="14.00">_layout</text>
</g>
<!-- ApplicationController&#45;&gt;HomeController -->
<g id="edge1" class="edge"><title>ApplicationController&#45;&gt;HomeController</title>
<path fill="none" stroke="black" d="M139.923,-260.68C141.825,-261.085 143.724,-261.49 145.613,-261.892"/>
<polyline fill="none" stroke="black" points="150.59,-262.953 145.699,-261.911 "/>
</g>
<!-- UsersController -->
<g id="node5" class="node"><title>UsersController</title>
<path fill="none" stroke="black" d="M110.654,-0.5C110.654,-0.5 192.082,-0.5 192.082,-0.5 198.082,-0.5 204.082,-6.5 204.082,-12.5 204.082,-12.5 204.082,-137.3 204.082,-137.3 204.082,-143.3 198.082,-149.3 192.082,-149.3 192.082,-149.3 110.654,-149.3 110.654,-149.3 104.654,-149.3 98.6543,-143.3 98.6543,-137.3 98.6543,-137.3 98.6543,-12.5 98.6543,-12.5 98.6543,-6.5 104.654,-0.5 110.654,-0.5"/>
<text text-anchor="middle" x="151.368" y="-131.3" font-family="Times,serif" font-size="14.00">UsersController</text>
<polyline fill="none" stroke="black" points="98.6543,-124.5 204.082,-124.5 "/>
<text text-anchor="start" x="106.654" y="-106.5" font-family="Times,serif" font-size="14.00">destroy</text>
<text text-anchor="start" x="106.654" y="-89.7" font-family="Times,serif" font-size="14.00">index</text>
<text text-anchor="start" x="106.654" y="-72.9" font-family="Times,serif" font-size="14.00">show</text>
<text text-anchor="start" x="106.654" y="-56.1" font-family="Times,serif" font-size="14.00">update</text>
<polyline fill="none" stroke="black" points="98.6543,-49.3 204.082,-49.3 "/>
<polyline fill="none" stroke="black" points="98.6543,-25.3 204.082,-25.3 "/>
<text text-anchor="start" x="106.654" y="-7.3" font-family="Times,serif" font-size="14.00">_layout</text>
</g>
<!-- ApplicationController&#45;&gt;UsersController -->
<g id="edge3" class="edge"><title>ApplicationController&#45;&gt;UsersController</title>
<path fill="none" stroke="black" d="M93.189,-196.787C99.5868,-183.383 106.689,-168.505 113.669,-153.88"/>
<polyline fill="none" stroke="black" points="115.831,-149.351 113.677,-153.863 "/>
</g>
<!-- RegistrationsController -->
<g id="node4" class="node"><title>RegistrationsController</title>
<path fill="none" stroke="black" d="M272,-52.5C272,-52.5 405.504,-52.5 405.504,-52.5 411.504,-52.5 417.504,-58.5 417.504,-64.5 417.504,-64.5 417.504,-138.9 417.504,-138.9 417.504,-144.9 411.504,-150.9 405.504,-150.9 405.504,-150.9 272,-150.9 272,-150.9 266,-150.9 260,-144.9 260,-138.9 260,-138.9 260,-64.5 260,-64.5 260,-58.5 266,-52.5 272,-52.5"/>
<text text-anchor="middle" x="338.752" y="-132.9" font-family="Times,serif" font-size="14.00">RegistrationsController</text>
<polyline fill="none" stroke="black" points="260,-126.1 417.504,-126.1 "/>
<text text-anchor="start" x="268" y="-108.1" font-family="Times,serif" font-size="14.00">update_sanitized_params</text>
<polyline fill="none" stroke="black" points="260,-101.3 417.504,-101.3 "/>
<polyline fill="none" stroke="black" points="260,-77.3 417.504,-77.3 "/>
<text text-anchor="start" x="268" y="-59.3" font-family="Times,serif" font-size="14.00">_layout</text>
</g>
<!-- Devise::RegistrationsController -->
<g id="node6" class="node"><title>Devise::RegistrationsController</title>
<ellipse fill="none" stroke="black" cx="573.149" cy="-101.7" rx="133.75" ry="18"/>
<text text-anchor="middle" x="573.149" y="-96.0998" font-family="Times,serif" font-size="14.00">Devise::RegistrationsController</text>
</g>
<!-- Devise::RegistrationsController&#45;&gt;RegistrationsController -->
<g id="edge2" class="edge"><title>Devise::RegistrationsController&#45;&gt;RegistrationsController</title>
<path fill="none" stroke="black" d="M439.178,-101.7C433.717,-101.7 428.306,-101.7 422.993,-101.7"/>
<polyline fill="none" stroke="black" points="417.714,-101.7 422.714,-101.7 "/>
</g>
</g>
</svg>
