<?xml version="1.0" encoding="UTF-8" standalone="no"?>
<!DOCTYPE svg PUBLIC "-//W3C//DTD SVG 1.1//EN"
 "http://www.w3.org/Graphics/SVG/1.1/DTD/svg11.dtd">
<!-- Generated by graphviz version 2.34.0 (20131213.2227)
 -->
<!-- Title: models_diagram Pages: 1 -->
<svg width="1006pt" height="1628pt"
 viewBox="0.00 0.00 1006.00 1628.00" xmlns="http://www.w3.org/2000/svg" xmlns:xlink="http://www.w3.org/1999/xlink">
<g id="graph0" class="graph" transform="scale(1 1) rotate(0) translate(4 1624)">
<title>models_diagram</title>
<polygon fill="white" stroke="white" points="-4,4 -4,-1624 1002,-1624 1002,4 -4,4"/>
<!-- _diagram_info -->
<g id="node1" class="node"><title>_diagram_info</title>
<text text-anchor="start" x="7.31226" y="-1603" font-family="Times,serif" font-size="13.00">Models diagram</text>
<text text-anchor="start" x="7.31226" y="-1587.4" font-family="Times,serif" font-size="13.00">Date: Dec 15 2013 &#45; 22:58</text>
<text text-anchor="start" x="7.31226" y="-1571.8" font-family="Times,serif" font-size="13.00">Migration version: 20131213230341</text>
<text text-anchor="start" x="7.31226" y="-1556.2" font-family="Times,serif" font-size="13.00">Generated by RailRoady 1.1.1</text>
<text text-anchor="start" x="7.31226" y="-1540.6" font-family="Times,serif" font-size="13.00">http://railroady.prestonlee.com</text>
</g>
<!-- Ability -->
<g id="node2" class="node"><title>Ability</title>
<polygon fill="none" stroke="black" points="233.166,-1370.2 233.166,-1419.8 288.834,-1419.8 288.834,-1370.2 233.166,-1370.2"/>
<text text-anchor="middle" x="261" y="-1401.8" font-family="Times,serif" font-size="14.00">Ability</text>
<polyline fill="none" stroke="black" points="233.166,-1395 288.834,-1395 "/>
<text text-anchor="middle" x="261" y="-1377" font-family="Times,serif" font-size="14.00"> </text>
</g>
<!-- AttendeeEvent -->
<g id="node3" class="node"><title>AttendeeEvent</title>
<path fill="none" stroke="black" d="M772.495,-521.6C772.495,-521.6 881.505,-521.6 881.505,-521.6 887.505,-521.6 893.505,-527.6 893.505,-533.6 893.505,-533.6 893.505,-626.4 893.505,-626.4 893.505,-632.4 887.505,-638.4 881.505,-638.4 881.505,-638.4 772.495,-638.4 772.495,-638.4 766.495,-638.4 760.495,-632.4 760.495,-626.4 760.495,-626.4 760.495,-533.6 760.495,-533.6 760.495,-527.6 766.495,-521.6 772.495,-521.6"/>
<text text-anchor="middle" x="827" y="-620.4" font-family="Times,serif" font-size="14.00">AttendeeEvent</text>
<polyline fill="none" stroke="black" points="760.495,-613.6 893.505,-613.6 "/>
<text text-anchor="start" x="768.495" y="-595.6" font-family="Times,serif" font-size="14.00">id :integer</text>
<text text-anchor="start" x="768.495" y="-578.8" font-family="Times,serif" font-size="14.00">user_id :integer</text>
<text text-anchor="start" x="768.495" y="-562" font-family="Times,serif" font-size="14.00">event_id :integer</text>
<text text-anchor="start" x="768.495" y="-545.2" font-family="Times,serif" font-size="14.00">created_at :datetime</text>
<text text-anchor="start" x="768.495" y="-528.4" font-family="Times,serif" font-size="14.00">updated_at :datetime</text>
</g>
<!-- Comment -->
<g id="node4" class="node"><title>Comment</title>
<path fill="none" stroke="black" d="M370.102,-0.4C370.102,-0.4 507.898,-0.4 507.898,-0.4 513.898,-0.4 519.898,-6.4 519.898,-12.4 519.898,-12.4 519.898,-155.6 519.898,-155.6 519.898,-161.6 513.898,-167.6 507.898,-167.6 507.898,-167.6 370.102,-167.6 370.102,-167.6 364.102,-167.6 358.102,-161.6 358.102,-155.6 358.102,-155.6 358.102,-12.4 358.102,-12.4 358.102,-6.4 364.102,-0.4 370.102,-0.4"/>
<text text-anchor="middle" x="439" y="-149.6" font-family="Times,serif" font-size="14.00">Comment</text>
<polyline fill="none" stroke="black" points="358.102,-142.8 519.898,-142.8 "/>
<text text-anchor="start" x="366.102" y="-124.8" font-family="Times,serif" font-size="14.00">id :integer</text>
<text text-anchor="start" x="366.102" y="-108" font-family="Times,serif" font-size="14.00">text :text</text>
<text text-anchor="start" x="366.102" y="-91.2" font-family="Times,serif" font-size="14.00">reply_to_id :integer</text>
<text text-anchor="start" x="366.102" y="-74.4" font-family="Times,serif" font-size="14.00">user_id :integer</text>
<text text-anchor="start" x="366.102" y="-57.6" font-family="Times,serif" font-size="14.00">commentable_id :integer</text>
<text text-anchor="start" x="366.102" y="-40.8" font-family="Times,serif" font-size="14.00">commentable_type :string</text>
<text text-anchor="start" x="366.102" y="-24" font-family="Times,serif" font-size="14.00">created_at :datetime</text>
<text text-anchor="start" x="366.102" y="-7.2" font-family="Times,serif" font-size="14.00">updated_at :datetime</text>
</g>
<!-- Comment&#45;&gt;Comment -->
<g id="edge3" class="edge"><title>Comment&#45;&gt;Comment</title>
<path fill="none" stroke="#39f3ac" d="M527.807,-97.5574C533.537,-94.3899 537,-89.8707 537,-84 537,-78.7674 534.249,-74.6085 529.594,-71.5234"/>
<ellipse fill="none" stroke="#39f3ac" cx="523.822" cy="-99.1615" rx="4.00001" ry="4.00001"/>
<polygon fill="#39f3ac" stroke="#39f3ac" points="529.262,-71.3773 521.926,-63.227 524.687,-69.3611 520.111,-67.345 520.111,-67.345 520.111,-67.345 524.687,-69.3611 518.297,-71.463 529.262,-71.3773 529.262,-71.3773"/>
<text text-anchor="middle" x="555.659" y="-78.4" font-family="Times,serif" font-size="14.00">replies</text>
</g>
<!-- Event -->
<g id="node5" class="node"><title>Event</title>
<path fill="none" stroke="black" d="M624.991,-1294.6C624.991,-1294.6 741.009,-1294.6 741.009,-1294.6 747.009,-1294.6 753.009,-1300.6 753.009,-1306.6 753.009,-1306.6 753.009,-1483.4 753.009,-1483.4 753.009,-1489.4 747.009,-1495.4 741.009,-1495.4 741.009,-1495.4 624.991,-1495.4 624.991,-1495.4 618.991,-1495.4 612.991,-1489.4 612.991,-1483.4 612.991,-1483.4 612.991,-1306.6 612.991,-1306.6 612.991,-1300.6 618.991,-1294.6 624.991,-1294.6"/>
<text text-anchor="middle" x="683" y="-1477.4" font-family="Times,serif" font-size="14.00">Event</text>
<polyline fill="none" stroke="black" points="612.991,-1470.6 753.009,-1470.6 "/>
<text text-anchor="start" x="620.991" y="-1452.6" font-family="Times,serif" font-size="14.00">id :integer</text>
<text text-anchor="start" x="620.991" y="-1435.8" font-family="Times,serif" font-size="14.00">name :string</text>
<text text-anchor="start" x="620.991" y="-1419" font-family="Times,serif" font-size="14.00">description :text</text>
<text text-anchor="start" x="620.991" y="-1402.2" font-family="Times,serif" font-size="14.00">begins_at :datetime</text>
<text text-anchor="start" x="620.991" y="-1385.4" font-family="Times,serif" font-size="14.00">ends_at :datetime</text>
<text text-anchor="start" x="620.991" y="-1368.6" font-family="Times,serif" font-size="14.00">website :string</text>
<text text-anchor="start" x="620.991" y="-1351.8" font-family="Times,serif" font-size="14.00">eventable_id :integer</text>
<text text-anchor="start" x="620.991" y="-1335" font-family="Times,serif" font-size="14.00">eventable_type :string</text>
<text text-anchor="start" x="620.991" y="-1318.2" font-family="Times,serif" font-size="14.00">created_at :datetime</text>
<text text-anchor="start" x="620.991" y="-1301.4" font-family="Times,serif" font-size="14.00">updated_at :datetime</text>
</g>
<!-- Event&#45;&gt;AttendeeEvent -->
<g id="edge6" class="edge"><title>Event&#45;&gt;AttendeeEvent</title>
<path fill="none" stroke="#5d23ae" d="M759.707,-1345.26C782.397,-1326.59 804.495,-1303.15 817,-1276 914.315,-1064.7 870.736,-777.52 843.276,-648.564"/>
<ellipse fill="none" stroke="#5d23ae" cx="756.42" cy="-1347.9" rx="4.00002" ry="4.00002"/>
<polygon fill="#5d23ae" stroke="#5d23ae" points="843.201,-648.213 845.482,-637.487 842.142,-643.326 841.084,-638.44 841.084,-638.44 841.084,-638.44 842.142,-643.326 836.686,-639.392 843.201,-648.213 843.201,-648.213"/>
</g>
<!-- Event&#45;&gt;Comment -->
<g id="edge9" class="edge"><title>Event&#45;&gt;Comment</title>
<path fill="none" stroke="#e69666" d="M606.079,-1298.99C603.436,-1297.21 600.742,-1295.54 598,-1294 521.132,-1250.72 454.724,-1314.19 407,-1240 294.935,-1065.78 384.52,-420.905 423.325,-178.193"/>
<ellipse fill="none" stroke="#e69666" cx="609.704" cy="-1301.59" rx="4.00002" ry="4.00002"/>
<polygon fill="#e69666" stroke="#e69666" points="423.378,-177.86 429.408,-168.7 424.171,-172.923 424.965,-167.986 424.965,-167.986 424.965,-167.986 424.171,-172.923 420.522,-167.272 423.378,-177.86 423.378,-177.86"/>
</g>
<!-- Tag -->
<g id="node8" class="node"><title>Tag</title>
<path fill="none" stroke="black" d="M677.098,-17.2C677.098,-17.2 786.902,-17.2 786.902,-17.2 792.902,-17.2 798.902,-23.2 798.902,-29.2 798.902,-29.2 798.902,-138.8 798.902,-138.8 798.902,-144.8 792.902,-150.8 786.902,-150.8 786.902,-150.8 677.098,-150.8 677.098,-150.8 671.098,-150.8 665.098,-144.8 665.098,-138.8 665.098,-138.8 665.098,-29.2 665.098,-29.2 665.098,-23.2 671.098,-17.2 677.098,-17.2"/>
<text text-anchor="middle" x="732" y="-132.8" font-family="Times,serif" font-size="14.00">Tag</text>
<polyline fill="none" stroke="black" points="665.098,-126 798.902,-126 "/>
<text text-anchor="start" x="673.098" y="-108" font-family="Times,serif" font-size="14.00">id :integer</text>
<text text-anchor="start" x="673.098" y="-91.2" font-family="Times,serif" font-size="14.00">name :string</text>
<text text-anchor="start" x="673.098" y="-74.4" font-family="Times,serif" font-size="14.00">taggable_id :integer</text>
<text text-anchor="start" x="673.098" y="-57.6" font-family="Times,serif" font-size="14.00">taggable_type :string</text>
<text text-anchor="start" x="673.098" y="-40.8" font-family="Times,serif" font-size="14.00">created_at :datetime</text>
<text text-anchor="start" x="673.098" y="-24" font-family="Times,serif" font-size="14.00">updated_at :datetime</text>
</g>
<!-- Event&#45;&gt;Tag -->
<g id="edge8" class="edge"><title>Event&#45;&gt;Tag</title>
<path fill="none" stroke="#dfea04" d="M759.372,-1317.52C769.591,-1309.05 780.263,-1300.97 791,-1294 808.033,-1282.94 816.264,-1287.5 833,-1276 851.39,-1263.36 857.536,-1259.71 868,-1240 923.341,-1135.76 922,-1098.02 922,-980 922,-980 922,-980 922,-331 922,-252.049 859.943,-182.992 806.761,-138.307"/>
<ellipse fill="none" stroke="#dfea04" cx="756.126" cy="-1320.26" rx="4.00002" ry="4.00002"/>
<polygon fill="#dfea04" stroke="#dfea04" points="806.7,-138.257 801.851,-128.421 802.844,-135.074 798.987,-131.892 798.987,-131.892 798.987,-131.892 802.844,-135.074 796.123,-135.363 806.7,-138.257 806.7,-138.257"/>
</g>
<!-- Talk -->
<g id="node9" class="node"><title>Talk</title>
<path fill="none" stroke="black" d="M536.495,-206.4C536.495,-206.4 645.505,-206.4 645.505,-206.4 651.505,-206.4 657.505,-212.4 657.505,-218.4 657.505,-218.4 657.505,-445.6 657.505,-445.6 657.505,-451.6 651.505,-457.6 645.505,-457.6 645.505,-457.6 536.495,-457.6 536.495,-457.6 530.495,-457.6 524.495,-451.6 524.495,-445.6 524.495,-445.6 524.495,-218.4 524.495,-218.4 524.495,-212.4 530.495,-206.4 536.495,-206.4"/>
<text text-anchor="middle" x="591" y="-439.6" font-family="Times,serif" font-size="14.00">Talk</text>
<polyline fill="none" stroke="black" points="524.495,-432.8 657.505,-432.8 "/>
<text text-anchor="start" x="532.495" y="-414.8" font-family="Times,serif" font-size="14.00">id :integer</text>
<text text-anchor="start" x="532.495" y="-398" font-family="Times,serif" font-size="14.00">talk_type :string</text>
<text text-anchor="start" x="532.495" y="-381.2" font-family="Times,serif" font-size="14.00">title :string</text>
<text text-anchor="start" x="532.495" y="-364.4" font-family="Times,serif" font-size="14.00">description :text</text>
<text text-anchor="start" x="532.495" y="-347.6" font-family="Times,serif" font-size="14.00">justification :text</text>
<text text-anchor="start" x="532.495" y="-330.8" font-family="Times,serif" font-size="14.00">video :string</text>
<text text-anchor="start" x="532.495" y="-314" font-family="Times,serif" font-size="14.00">presentation :string</text>
<text text-anchor="start" x="532.495" y="-297.2" font-family="Times,serif" font-size="14.00">status :string</text>
<text text-anchor="start" x="532.495" y="-280.4" font-family="Times,serif" font-size="14.00">resources :hstore</text>
<text text-anchor="start" x="532.495" y="-263.6" font-family="Times,serif" font-size="14.00">user_id :integer</text>
<text text-anchor="start" x="532.495" y="-246.8" font-family="Times,serif" font-size="14.00">event_id :integer</text>
<text text-anchor="start" x="532.495" y="-230" font-family="Times,serif" font-size="14.00">created_at :datetime</text>
<text text-anchor="start" x="532.495" y="-213.2" font-family="Times,serif" font-size="14.00">updated_at :datetime</text>
</g>
<!-- Event&#45;&gt;Talk -->
<g id="edge5" class="edge"><title>Event&#45;&gt;Talk</title>
<path fill="none" stroke="#84d811" d="M606.016,-1299.1C603.392,-1297.29 600.719,-1295.58 598,-1294 561.251,-1272.58 531.891,-1308.12 504,-1276 330.708,-1076.45 434.114,-942.953 476,-682 487.66,-609.355 512.154,-531.333 535.552,-467.522"/>
<ellipse fill="none" stroke="#84d811" cx="609.621" cy="-1301.74" rx="4.00002" ry="4.00002"/>
<polygon fill="#84d811" stroke="#84d811" points="535.676,-467.188 543.366,-459.371 537.411,-462.499 539.145,-457.81 539.145,-457.81 539.145,-457.81 537.411,-462.499 534.925,-456.248 535.676,-467.188 535.676,-467.188"/>
</g>
<!-- User -->
<g id="node10" class="node"><title>User</title>
<path fill="none" stroke="black" d="M551.722,-719C551.722,-719 732.278,-719 732.278,-719 738.278,-719 744.278,-725 744.278,-731 744.278,-731 744.278,-1227 744.278,-1227 744.278,-1233 738.278,-1239 732.278,-1239 732.278,-1239 551.722,-1239 551.722,-1239 545.722,-1239 539.722,-1233 539.722,-1227 539.722,-1227 539.722,-731 539.722,-731 539.722,-725 545.722,-719 551.722,-719"/>
<text text-anchor="middle" x="642" y="-1221" font-family="Times,serif" font-size="14.00">User</text>
<polyline fill="none" stroke="black" points="539.722,-1214.2 744.278,-1214.2 "/>
<text text-anchor="start" x="547.722" y="-1196.2" font-family="Times,serif" font-size="14.00">id :integer</text>
<text text-anchor="start" x="547.722" y="-1179.4" font-family="Times,serif" font-size="14.00">email :string</text>
<text text-anchor="start" x="547.722" y="-1162.6" font-family="Times,serif" font-size="14.00">encrypted_password :string</text>
<text text-anchor="start" x="547.722" y="-1145.8" font-family="Times,serif" font-size="14.00">reset_password_token :string</text>
<text text-anchor="start" x="547.722" y="-1129" font-family="Times,serif" font-size="14.00">reset_password_sent_at :datetime</text>
<text text-anchor="start" x="547.722" y="-1112.2" font-family="Times,serif" font-size="14.00">remember_created_at :datetime</text>
<text text-anchor="start" x="547.722" y="-1095.4" font-family="Times,serif" font-size="14.00">sign_in_count :integer</text>
<text text-anchor="start" x="547.722" y="-1078.6" font-family="Times,serif" font-size="14.00">current_sign_in_at :datetime</text>
<text text-anchor="start" x="547.722" y="-1061.8" font-family="Times,serif" font-size="14.00">last_sign_in_at :datetime</text>
<text text-anchor="start" x="547.722" y="-1045" font-family="Times,serif" font-size="14.00">current_sign_in_ip :string</text>
<text text-anchor="start" x="547.722" y="-1028.2" font-family="Times,serif" font-size="14.00">last_sign_in_ip :string</text>
<text text-anchor="start" x="547.722" y="-1011.4" font-family="Times,serif" font-size="14.00">created_at :datetime</text>
<text text-anchor="start" x="547.722" y="-994.6" font-family="Times,serif" font-size="14.00">updated_at :datetime</text>
<text text-anchor="start" x="547.722" y="-977.8" font-family="Times,serif" font-size="14.00">first_name :string</text>
<text text-anchor="start" x="547.722" y="-961" font-family="Times,serif" font-size="14.00">last_name :string</text>
<text text-anchor="start" x="547.722" y="-944.2" font-family="Times,serif" font-size="14.00">user_name :string</text>
<text text-anchor="start" x="547.722" y="-927.4" font-family="Times,serif" font-size="14.00">confirmation_token :string</text>
<text text-anchor="start" x="547.722" y="-910.6" font-family="Times,serif" font-size="14.00">confirmed_at :datetime</text>
<text text-anchor="start" x="547.722" y="-893.8" font-family="Times,serif" font-size="14.00">confirmation_sent_at :datetime</text>
<text text-anchor="start" x="547.722" y="-877" font-family="Times,serif" font-size="14.00">unconfirmed_email :string</text>
<text text-anchor="start" x="547.722" y="-860.2" font-family="Times,serif" font-size="14.00">invitation_token :string</text>
<text text-anchor="start" x="547.722" y="-843.4" font-family="Times,serif" font-size="14.00">invitation_created_at :datetime</text>
<text text-anchor="start" x="547.722" y="-826.6" font-family="Times,serif" font-size="14.00">invitation_sent_at :datetime</text>
<text text-anchor="start" x="547.722" y="-809.8" font-family="Times,serif" font-size="14.00">invitation_accepted_at :datetime</text>
<text text-anchor="start" x="547.722" y="-793" font-family="Times,serif" font-size="14.00">invitation_limit :integer</text>
<text text-anchor="start" x="547.722" y="-776.2" font-family="Times,serif" font-size="14.00">invited_by_id :integer</text>
<text text-anchor="start" x="547.722" y="-759.4" font-family="Times,serif" font-size="14.00">invited_by_type :string</text>
<text text-anchor="start" x="547.722" y="-742.6" font-family="Times,serif" font-size="14.00">organizations_count :integer</text>
<text text-anchor="start" x="547.722" y="-725.8" font-family="Times,serif" font-size="14.00">events_count :integer</text>
</g>
<!-- Event&#45;&gt;User -->
<g id="edge7" class="edge"><title>Event&#45;&gt;User</title>
<path fill="none" stroke="#729730" d="M623.397,-1285C622.487,-1281.99 621.656,-1278.99 620.917,-1276 618.74,-1267.18 616.962,-1258.18 615.539,-1249.05"/>
<polygon fill="#729730" stroke="#729730" points="623.421,-1285.07 622.288,-1295.98 624.991,-1289.82 626.561,-1294.56 626.561,-1294.56 626.561,-1294.56 624.991,-1289.82 630.833,-1293.15 623.421,-1285.07 623.421,-1285.07"/>
<polygon fill="#729730" stroke="#729730" points="615.533,-1249.01 618.588,-1238.48 614.833,-1244.06 614.133,-1239.11 614.133,-1239.11 614.133,-1239.11 614.833,-1244.06 609.677,-1239.74 615.533,-1249.01 615.533,-1249.01"/>
<text text-anchor="middle" x="646.042" y="-1261.4" font-family="Times,serif" font-size="14.00">attendees</text>
</g>
<!-- Organization -->
<g id="node6" class="node"><title>Organization</title>
<path fill="none" stroke="black" d="M579.936,-496.4C579.936,-496.4 692.064,-496.4 692.064,-496.4 698.064,-496.4 704.064,-502.4 704.064,-508.4 704.064,-508.4 704.064,-651.6 704.064,-651.6 704.064,-657.6 698.064,-663.6 692.064,-663.6 692.064,-663.6 579.936,-663.6 579.936,-663.6 573.936,-663.6 567.936,-657.6 567.936,-651.6 567.936,-651.6 567.936,-508.4 567.936,-508.4 567.936,-502.4 573.936,-496.4 579.936,-496.4"/>
<text text-anchor="middle" x="636" y="-645.6" font-family="Times,serif" font-size="14.00">Organization</text>
<polyline fill="none" stroke="black" points="567.936,-638.8 704.064,-638.8 "/>
<text text-anchor="start" x="575.936" y="-620.8" font-family="Times,serif" font-size="14.00">id :integer</text>
<text text-anchor="start" x="575.936" y="-604" font-family="Times,serif" font-size="14.00">user_id :integer</text>
<text text-anchor="start" x="575.936" y="-587.2" font-family="Times,serif" font-size="14.00">name :string</text>
<text text-anchor="start" x="575.936" y="-570.4" font-family="Times,serif" font-size="14.00">website :string</text>
<text text-anchor="start" x="575.936" y="-553.6" font-family="Times,serif" font-size="14.00">about :text</text>
<text text-anchor="start" x="575.936" y="-536.8" font-family="Times,serif" font-size="14.00">created_at :datetime</text>
<text text-anchor="start" x="575.936" y="-520" font-family="Times,serif" font-size="14.00">updated_at :datetime</text>
<text text-anchor="start" x="575.936" y="-503.2" font-family="Times,serif" font-size="14.00">events_count :integer</text>
</g>
<!-- Organization&#45;&gt;Event -->
<g id="edge11" class="edge"><title>Organization&#45;&gt;Event</title>
<path fill="none" stroke="#adbe6a" d="M709.463,-650.45C726.561,-670.571 742.745,-693.715 753,-718 846.766,-940.04 791.877,-1017.23 803,-1258 803.369,-1265.99 806.092,-1268.62 803,-1276 793.661,-1298.28 777.835,-1318.48 760.688,-1335.62"/>
<ellipse fill="none" stroke="#adbe6a" cx="706.754" cy="-647.326" rx="4.00002" ry="4.00002"/>
<polygon fill="#adbe6a" stroke="#adbe6a" points="760.47,-1335.83 750.149,-1339.53 756.872,-1339.3 753.273,-1342.77 753.273,-1342.77 753.273,-1342.77 756.872,-1339.3 756.398,-1346.01 760.47,-1335.83 760.47,-1335.83"/>
</g>
<!-- Organization&#45;&gt;Tag -->
<g id="edge14" class="edge"><title>Organization&#45;&gt;Tag</title>
<path fill="none" stroke="#a1f63f" d="M659.175,-488.383C661.58,-478.157 663.906,-467.87 666,-458 687.718,-355.646 707.934,-236.44 720.126,-160.865"/>
<ellipse fill="none" stroke="#a1f63f" cx="658.248" cy="-492.291" rx="4.00001" ry="4.00001"/>
<polygon fill="#a1f63f" stroke="#a1f63f" points="720.132,-160.829 726.162,-151.67 720.926,-155.892 721.719,-150.955 721.719,-150.955 721.719,-150.955 720.926,-155.892 717.276,-150.241 720.132,-160.829 720.132,-160.829"/>
</g>
<!-- Organization&#45;&gt;Talk -->
<g id="edge12" class="edge"><title>Organization&#45;&gt;Talk</title>
<path fill="none" stroke="#c0d44a" d="M619.017,-486.161C617.937,-480.256 616.839,-474.252 615.733,-468.208"/>
<polygon fill="#c0d44a" stroke="#c0d44a" points="619.028,-486.222 616.401,-496.868 619.928,-491.14 620.828,-496.059 620.828,-496.059 620.828,-496.059 619.928,-491.14 625.254,-495.249 619.028,-486.222 619.028,-486.222"/>
<polygon fill="#c0d44a" stroke="#c0d44a" points="615.667,-467.847 618.294,-457.2 614.767,-462.928 613.868,-458.01 613.868,-458.01 613.868,-458.01 614.767,-462.928 609.441,-458.82 615.667,-467.847 615.667,-467.847"/>
</g>
<!-- Organization&#45;&gt;User -->
<g id="edge13" class="edge"><title>Organization&#45;&gt;User</title>
<path fill="none" stroke="#e740de" d="M637.408,-674.141C637.572,-685.019 637.745,-696.492 637.925,-708.356"/>
<polygon fill="#e740de" stroke="#e740de" points="637.404,-673.898 641.752,-663.831 637.328,-668.899 637.253,-663.899 637.253,-663.899 637.253,-663.899 637.328,-668.899 632.753,-663.967 637.404,-673.898 637.404,-673.898"/>
<polygon fill="#e740de" stroke="#e740de" points="637.93,-708.738 633.582,-718.805 638.006,-713.738 638.082,-718.737 638.082,-718.737 638.082,-718.737 638.006,-713.738 642.581,-718.669 637.93,-708.738 637.93,-708.738"/>
<text text-anchor="middle" x="663.042" y="-685.4" font-family="Times,serif" font-size="14.00">attendees</text>
</g>
<!-- Role -->
<g id="node7" class="node"><title>Role</title>
<path fill="none" stroke="black" d="M468.102,-1328.2C468.102,-1328.2 577.898,-1328.2 577.898,-1328.2 583.898,-1328.2 589.898,-1334.2 589.898,-1340.2 589.898,-1340.2 589.898,-1449.8 589.898,-1449.8 589.898,-1455.8 583.898,-1461.8 577.898,-1461.8 577.898,-1461.8 468.102,-1461.8 468.102,-1461.8 462.102,-1461.8 456.102,-1455.8 456.102,-1449.8 456.102,-1449.8 456.102,-1340.2 456.102,-1340.2 456.102,-1334.2 462.102,-1328.2 468.102,-1328.2"/>
<text text-anchor="middle" x="523" y="-1443.8" font-family="Times,serif" font-size="14.00">Role</text>
<polyline fill="none" stroke="black" points="456.102,-1437 589.898,-1437 "/>
<text text-anchor="start" x="464.102" y="-1419" font-family="Times,serif" font-size="14.00">id :integer</text>
<text text-anchor="start" x="464.102" y="-1402.2" font-family="Times,serif" font-size="14.00">name :string</text>
<text text-anchor="start" x="464.102" y="-1385.4" font-family="Times,serif" font-size="14.00">resource_id :integer</text>
<text text-anchor="start" x="464.102" y="-1368.6" font-family="Times,serif" font-size="14.00">resource_type :string</text>
<text text-anchor="start" x="464.102" y="-1351.8" font-family="Times,serif" font-size="14.00">created_at :datetime</text>
<text text-anchor="start" x="464.102" y="-1335" font-family="Times,serif" font-size="14.00">updated_at :datetime</text>
</g>
<!-- Role&#45;&gt;User -->
<g id="edge16" class="edge"><title>Role&#45;&gt;User</title>
<path fill="none" stroke="#8f3c4d" d="M502.509,-1318.03C499.89,-1298.35 499.48,-1277.27 504,-1258 511.276,-1226.98 522.553,-1195.46 535.596,-1165.32"/>
<polygon fill="#8f3c4d" stroke="#8f3c4d" points="502.549,-1318.3 499.617,-1328.86 503.307,-1323.24 504.065,-1328.18 504.065,-1328.18 504.065,-1328.18 503.307,-1323.24 508.513,-1327.5 502.549,-1318.3 502.549,-1318.3"/>
<polygon fill="#8f3c4d" stroke="#8f3c4d" points="535.665,-1165.16 543.816,-1157.83 537.681,-1160.59 539.698,-1156.01 539.698,-1156.01 539.698,-1156.01 537.681,-1160.59 535.58,-1154.2 535.665,-1165.16 535.665,-1165.16"/>
</g>
<!-- Talk&#45;&gt;Comment -->
<g id="edge20" class="edge"><title>Talk&#45;&gt;Comment</title>
<path fill="none" stroke="#5db454" d="M520.059,-202.336C516.706,-196.788 513.344,-191.322 510,-186 508.001,-182.818 505.942,-179.599 503.842,-176.362"/>
<ellipse fill="none" stroke="#5db454" cx="522.24" cy="-205.973" rx="4.00002" ry="4.00002"/>
<polygon fill="#5db454" stroke="#5db454" points="503.686,-176.124 501.959,-165.295 500.942,-171.945 498.197,-167.765 498.197,-167.765 498.197,-167.765 500.942,-171.945 494.436,-170.235 503.686,-176.124 503.686,-176.124"/>
</g>
<!-- Talk&#45;&gt;Tag -->
<g id="edge19" class="edge"><title>Talk&#45;&gt;Tag</title>
<path fill="none" stroke="#921275" d="M661.699,-207.652C671.055,-191.329 680.407,-175.014 689.094,-159.857"/>
<ellipse fill="none" stroke="#921275" cx="659.567" cy="-211.373" rx="4.00002" ry="4.00002"/>
<polygon fill="#921275" stroke="#921275" points="689.155,-159.751 698.032,-153.313 691.641,-155.413 694.128,-151.075 694.128,-151.075 694.128,-151.075 691.641,-155.413 690.224,-148.837 689.155,-159.751 689.155,-159.751"/>
</g>
<!-- User&#45;&gt;AttendeeEvent -->
<g id="edge28" class="edge"><title>User&#45;&gt;AttendeeEvent</title>
<path fill="none" stroke="#50552a" d="M747.871,-750.807C765.345,-713.309 782.168,-677.207 795.776,-648.005"/>
<ellipse fill="none" stroke="#50552a" cx="746.064" cy="-754.684" rx="4.00002" ry="4.00002"/>
<polygon fill="#50552a" stroke="#50552a" points="795.854,-647.837 804.157,-640.674 797.966,-643.305 800.078,-638.773 800.078,-638.773 800.078,-638.773 797.966,-643.305 795.999,-636.872 795.854,-647.837 795.854,-647.837"/>
</g>
<!-- User&#45;&gt;Comment -->
<g id="edge25" class="edge"><title>User&#45;&gt;Comment</title>
<path fill="none" stroke="#bcbb9d" d="M560.024,-710.821C559.004,-707.193 557.995,-703.585 557,-700 506.391,-517.743 470.07,-299.157 451.991,-177.804"/>
<ellipse fill="none" stroke="#bcbb9d" cx="561.188" cy="-714.945" rx="4.00001" ry="4.00001"/>
<polygon fill="#bcbb9d" stroke="#bcbb9d" points="451.975,-177.695 454.961,-167.144 451.242,-172.749 450.509,-167.803 450.509,-167.803 450.509,-167.803 451.242,-172.749 446.058,-168.463 451.975,-177.695 451.975,-177.695"/>
</g>
<!-- User&#45;&gt;Event -->
<g id="edge26" class="edge"><title>User&#45;&gt;Event</title>
<path fill="none" stroke="#caad45" d="M672.019,-1247.53C672.352,-1251.04 672.679,-1254.53 673,-1258 673.792,-1266.56 674.561,-1275.44 675.297,-1284.36"/>
<ellipse fill="none" stroke="#caad45" cx="671.613" cy="-1243.28" rx="4" ry="4"/>
<polygon fill="#caad45" stroke="#caad45" points="675.306,-1284.47 671.628,-1294.8 675.709,-1289.45 676.113,-1294.43 676.113,-1294.43 676.113,-1294.43 675.709,-1289.45 680.598,-1294.07 675.306,-1284.47 675.306,-1284.47"/>
</g>
<!-- User&#45;&gt;Event -->
<g id="edge27" class="edge"><title>User&#45;&gt;Event</title>
<path fill="none" stroke="#66e87c" d="M686.827,-1249.33C687.082,-1258.31 687.149,-1267.22 687,-1276 686.954,-1278.74 686.901,-1281.51 686.843,-1284.31"/>
<polygon fill="#66e87c" stroke="#66e87c" points="686.821,-1249.15 690.959,-1238.99 686.641,-1244.15 686.462,-1239.15 686.462,-1239.15 686.462,-1239.15 686.641,-1244.15 681.965,-1239.32 686.821,-1249.15 686.821,-1249.15"/>
<polygon fill="#66e87c" stroke="#66e87c" points="686.838,-1284.54 682.113,-1294.44 686.725,-1289.54 686.612,-1294.54 686.612,-1294.54 686.612,-1294.54 686.725,-1289.54 691.111,-1294.64 686.838,-1284.54 686.838,-1284.54"/>
<text text-anchor="middle" x="743.246" y="-1261.4" font-family="Times,serif" font-size="14.00">organization_events</text>
</g>
<!-- User&#45;&gt;Event -->
<g id="edge29" class="edge"><title>User&#45;&gt;Event</title>
<path fill="none" stroke="#fc4846" d="M534.12,-1105.15C499.006,-1161.32 478.178,-1226.03 518.138,-1276 540.862,-1304.42 566.867,-1275.17 598,-1294 600.218,-1295.34 602.406,-1296.76 604.564,-1298.25"/>
<polygon fill="#fc4846" stroke="#fc4846" points="534.227,-1104.98 543.42,-1099 536.931,-1100.78 539.634,-1096.57 539.634,-1096.57 539.634,-1096.57 536.931,-1100.78 535.849,-1094.14 534.227,-1104.98 534.227,-1104.98"/>
<polygon fill="#fc4846" stroke="#fc4846" points="604.698,-1298.35 610.045,-1307.92 608.713,-1301.33 612.727,-1304.31 612.727,-1304.31 612.727,-1304.31 608.713,-1301.33 615.41,-1300.7 604.698,-1298.35 604.698,-1298.35"/>
<text text-anchor="middle" x="565.431" y="-1261.4" font-family="Times,serif" font-size="14.00">attending_events</text>
</g>
<!-- User&#45;&gt;Organization -->
<g id="edge23" class="edge"><title>User&#45;&gt;Organization</title>
<path fill="none" stroke="#a1630b" d="M632.77,-710.747C632.786,-701.045 632.86,-691.438 633,-682 633.04,-679.298 633.086,-676.555 633.138,-673.786"/>
<ellipse fill="none" stroke="#a1630b" cx="632.77" cy="-714.918" rx="4" ry="4"/>
<polygon fill="#a1630b" stroke="#a1630b" points="633.14,-673.672 637.844,-663.766 633.242,-668.673 633.344,-663.674 633.344,-663.674 633.344,-663.674 633.242,-668.673 628.845,-663.582 633.14,-673.672 633.14,-673.672"/>
</g>
<!-- User&#45;&gt;Tag -->
<g id="edge22" class="edge"><title>User&#45;&gt;Tag</title>
<path fill="none" stroke="#b9e4b8" d="M706.055,-710.465C708.696,-694.796 711.047,-679.224 713,-664 735.99,-484.794 736.07,-271.984 734.073,-160.976"/>
<ellipse fill="none" stroke="#b9e4b8" cx="705.324" cy="-714.724" rx="4.00001" ry="4.00001"/>
<polygon fill="#b9e4b8" stroke="#b9e4b8" points="734.071,-160.88 738.38,-150.796 733.976,-155.881 733.881,-150.882 733.881,-150.882 733.881,-150.882 733.976,-155.881 729.382,-150.968 734.071,-160.88 734.071,-160.88"/>
</g>
<!-- User&#45;&gt;Talk -->
<g id="edge24" class="edge"><title>User&#45;&gt;Talk</title>
<path fill="none" stroke="#a2c52e" d="M566.363,-710.414C563.479,-694.788 560.98,-679.237 559,-664 549.379,-589.956 551.774,-570.316 559,-496 559.901,-486.733 561.084,-477.211 562.463,-467.646"/>
<ellipse fill="none" stroke="#a2c52e" cx="567.165" cy="-714.66" rx="4.00001" ry="4.00001"/>
<polygon fill="#a2c52e" stroke="#a2c52e" points="562.476,-467.559 568.417,-458.342 563.222,-462.615 563.967,-457.671 563.967,-457.671 563.967,-457.671 563.222,-462.615 559.518,-456.999 562.476,-467.559 562.476,-467.559"/>
</g>
<!-- Object -->
<g id="node11" class="node"><title>Object</title>
<ellipse fill="none" stroke="black" cx="261" cy="-1577" rx="36.1697" ry="18"/>
<text text-anchor="middle" x="261" y="-1571.4" font-family="Times,serif" font-size="14.00">Object</text>
</g>
<!-- Object&#45;&gt;Ability -->
<g id="edge1" class="edge"><title>Object&#45;&gt;Ability</title>
<path fill="none" stroke="black" d="M261,-1558.74C261,-1527.96 261,-1463.28 261,-1425.38"/>
<polyline fill="none" stroke="black" points="261,-1419.99 261,-1424.99 "/>
</g>
<!-- ActiveRecord::Base -->
<g id="node12" class="node"><title>ActiveRecord::Base</title>
<ellipse fill="none" stroke="black" cx="605" cy="-1577" rx="88.2033" ry="18"/>
<text text-anchor="middle" x="605" y="-1571.4" font-family="Times,serif" font-size="14.00">ActiveRecord::Base</text>
</g>
<!-- ActiveRecord::Base&#45;&gt;AttendeeEvent -->
<g id="edge2" class="edge"><title>ActiveRecord::Base&#45;&gt;AttendeeEvent</title>
<path fill="none" stroke="black" d="M662.316,-1563.11C703.366,-1551.41 757.751,-1530.58 795,-1496 880.118,-1416.99 903.35,-1387.45 936,-1276 1002.61,-1048.61 905.664,-766.72 854.801,-643.528"/>
<polyline fill="none" stroke="black" points="852.862,-638.855 854.778,-643.473 "/>
</g>
<!-- ActiveRecord::Base&#45;&gt;Comment -->
<g id="edge4" class="edge"><title>ActiveRecord::Base&#45;&gt;Comment</title>
<path fill="none" stroke="black" d="M539.288,-1564.89C454.288,-1546.33 317,-1500.22 317,-1396 317,-1396 317,-1396 317,-331 317,-274.196 343.431,-216.976 371.688,-172.034"/>
<polyline fill="none" stroke="black" points="374.428,-167.723 371.746,-171.943 "/>
</g>
<!-- ActiveRecord::Base&#45;&gt;Event -->
<g id="edge10" class="edge"><title>ActiveRecord::Base&#45;&gt;Event</title>
<path fill="none" stroke="black" d="M612.479,-1558.74C618.637,-1544.53 627.928,-1523.09 637.762,-1500.4"/>
<polyline fill="none" stroke="black" points="639.868,-1495.54 637.88,-1500.12 "/>
</g>
<!-- ActiveRecord::Base&#45;&gt;Organization -->
<g id="edge15" class="edge"><title>ActiveRecord::Base&#45;&gt;Organization</title>
<path fill="none" stroke="black" d="M547.828,-1563.23C512.117,-1551.98 468.894,-1531.63 447,-1496 399.994,-1419.51 440.505,-1383.54 447,-1294 465.716,-1035.97 430.404,-956.349 531,-718 539.504,-697.851 551.693,-678.056 564.774,-660.051"/>
<polyline fill="none" stroke="black" points="567.756,-655.997 564.793,-660.025 "/>
</g>
<!-- ActiveRecord::Base&#45;&gt;Role -->
<g id="edge17" class="edge"><title>ActiveRecord::Base&#45;&gt;Role</title>
<path fill="none" stroke="black" d="M597.286,-1559.07C587.672,-1537.96 570.636,-1500.57 555.301,-1466.91"/>
<polyline fill="none" stroke="black" points="553.052,-1461.97 555.125,-1466.52 "/>
</g>
<!-- ActiveRecord::Base&#45;&gt;Tag -->
<g id="edge18" class="edge"><title>ActiveRecord::Base&#45;&gt;Tag</title>
<path fill="none" stroke="black" d="M691.732,-1573.29C807.466,-1564.52 998,-1529.77 998,-1396 998,-1396 998,-1396 998,-331 998,-224.922 882.568,-151.849 803.786,-114.33"/>
<polyline fill="none" stroke="black" points="799.123,-112.131 803.645,-114.264 "/>
</g>
<!-- ActiveRecord::Base&#45;&gt;Talk -->
<g id="edge21" class="edge"><title>ActiveRecord::Base&#45;&gt;Talk</title>
<path fill="none" stroke="black" d="M534.659,-1566C493.24,-1555.96 444.494,-1535.93 421,-1496 392.601,-1447.74 402.171,-1222.63 446,-718 454.61,-618.868 438.628,-588.619 475,-496 486.222,-467.425 503.522,-439.151 521.366,-414.377"/>
<polyline fill="none" stroke="black" points="524.468,-410.113 521.527,-414.157 "/>
</g>
<!-- ActiveRecord::Base&#45;&gt;User -->
<g id="edge30" class="edge"><title>ActiveRecord::Base&#45;&gt;User</title>
<path fill="none" stroke="black" d="M657.453,-1562.49C692.443,-1550.72 736.541,-1530.06 762,-1496 821.549,-1416.34 793.85,-1375.04 803,-1276 808.797,-1213.25 781.208,-1150.9 747.304,-1099.72"/>
<polyline fill="none" stroke="black" points="744.431,-1095.43 747.214,-1099.59 "/>
</g>
</g>
</svg>
