<?xml version="1.0" encoding="UTF-8" standalone="no"?>
<!DOCTYPE svg PUBLIC "-//W3C//DTD SVG 1.1//EN"
 "http://www.w3.org/Graphics/SVG/1.1/DTD/svg11.dtd">
<!-- Generated by graphviz version 2.34.0 (20131213.2227)
 -->
<!-- Title: models_diagram Pages: 1 -->
<svg width="1006pt" height="496pt"
 viewBox="0.00 0.00 1006.00 496.00" xmlns="http://www.w3.org/2000/svg" xmlns:xlink="http://www.w3.org/1999/xlink">
<g id="graph0" class="graph" transform="scale(1 1) rotate(0) translate(4 492)">
<title>models_diagram</title>
<polygon fill="white" stroke="white" points="-4,4 -4,-492 1002,-492 1002,4 -4,4"/>
<!-- _diagram_info -->
<g id="node1" class="node"><title>_diagram_info</title>
<text text-anchor="start" x="7.31226" y="-471" font-family="Times,serif" font-size="13.00">Models diagram</text>
<text text-anchor="start" x="7.31226" y="-455.4" font-family="Times,serif" font-size="13.00">Date: Dec 15 2013 &#45; 22:58</text>
<text text-anchor="start" x="7.31226" y="-439.8" font-family="Times,serif" font-size="13.00">Migration version: 20131213230341</text>
<text text-anchor="start" x="7.31226" y="-424.2" font-family="Times,serif" font-size="13.00">Generated by RailRoady 1.1.1</text>
<text text-anchor="start" x="7.31226" y="-408.6" font-family="Times,serif" font-size="13.00">http://railroady.prestonlee.com</text>
</g>
<!-- Ability -->
<g id="node2" class="node"><title>Ability</title>
<polygon fill="none" stroke="black" points="288.255,-364 233.745,-364 233.745,-328 288.255,-328 288.255,-364"/>
<text text-anchor="middle" x="261" y="-340.4" font-family="Times,serif" font-size="14.00">Ability</text>
</g>
<!-- AttendeeEvent -->
<g id="node3" class="node"><title>AttendeeEvent</title>
<ellipse fill="none" stroke="black" cx="826" cy="-166" rx="68.1259" ry="18"/>
<text text-anchor="middle" x="826" y="-160.4" font-family="Times,serif" font-size="14.00">AttendeeEvent</text>
</g>
<!-- Comment -->
<g id="node4" class="node"><title>Comment</title>
<ellipse fill="none" stroke="black" cx="447" cy="-18" rx="49.1903" ry="18"/>
<text text-anchor="middle" x="447" y="-12.4" font-family="Times,serif" font-size="14.00">Comment</text>
</g>
<!-- Comment&#45;&gt;Comment -->
<g id="edge3" class="edge"><title>Comment&#45;&gt;Comment</title>
<path fill="none" stroke="#b72a1f" d="M501.154,-24.0574C508.841,-23.0777 514,-21.0586 514,-18 514,-15.1963 509.665,-13.266 503.021,-12.2091"/>
<ellipse fill="none" stroke="#b72a1f" cx="496.709" cy="-24.3911" rx="4" ry="4"/>
<polygon fill="#b72a1f" stroke="#b72a1f" points="502.682,-12.1796 493.112,-6.8264 497.701,-11.7445 492.72,-11.3093 492.72,-11.3093 492.72,-11.3093 497.701,-11.7445 492.329,-15.7923 502.682,-12.1796 502.682,-12.1796"/>
<text text-anchor="middle" x="532.659" y="-12.4" font-family="Times,serif" font-size="14.00">replies</text>
</g>
<!-- Event -->
<g id="node5" class="node"><title>Event</title>
<ellipse fill="none" stroke="black" cx="653" cy="-346" rx="33.3419" ry="18"/>
<text text-anchor="middle" x="653" y="-340.4" font-family="Times,serif" font-size="14.00">Event</text>
</g>
<!-- Event&#45;&gt;AttendeeEvent -->
<g id="edge6" class="edge"><title>Event&#45;&gt;AttendeeEvent</title>
<path fill="none" stroke="#33360d" d="M694.057,-342.301C739,-338.4 806.845,-329.401 823,-310 849.839,-277.769 842.568,-225.818 834.514,-194.2"/>
<ellipse fill="none" stroke="#33360d" cx="689.936" cy="-342.642" rx="4" ry="4"/>
<polygon fill="#33360d" stroke="#33360d" points="834.447,-193.958 836.14,-183.124 833.124,-189.137 831.801,-184.315 831.801,-184.315 831.801,-184.315 833.124,-189.137 827.461,-185.506 834.447,-193.958 834.447,-193.958"/>
</g>
<!-- Event&#45;&gt;Comment -->
<g id="edge9" class="edge"><title>Event&#45;&gt;Comment</title>
<path fill="none" stroke="#c0b861" d="M613.46,-338.327C568.895,-330.508 501.397,-317.651 492,-310 413.066,-245.735 429.695,-105.406 440.984,-46.2067"/>
<ellipse fill="none" stroke="#c0b861" cx="617.555" cy="-339.04" rx="4.00001" ry="4.00001"/>
<polygon fill="#c0b861" stroke="#c0b861" points="441.038,-45.9382 447.418,-37.0193 442.022,-41.036 443.006,-36.1338 443.006,-36.1338 443.006,-36.1338 442.022,-41.036 438.594,-35.2482 441.038,-45.9382 441.038,-45.9382"/>
</g>
<!-- Tag -->
<g id="node8" class="node"><title>Tag</title>
<ellipse fill="none" stroke="black" cx="730" cy="-18" rx="27" ry="18"/>
<text text-anchor="middle" x="730" y="-12.4" font-family="Times,serif" font-size="14.00">Tag</text>
</g>
<!-- Event&#45;&gt;Tag -->
<g id="edge8" class="edge"><title>Event&#45;&gt;Tag</title>
<path fill="none" stroke="#29f8c2" d="M693.505,-340.296C768.631,-330.436 922,-304.491 922,-257 922,-257 922,-257 922,-91 922,-58.0571 821.653,-35.1155 766.049,-24.9318"/>
<ellipse fill="none" stroke="#29f8c2" cx="689.148" cy="-340.855" rx="4.00001" ry="4.00001"/>
<polygon fill="#29f8c2" stroke="#29f8c2" points="765.739,-24.8767 756.683,-18.6923 760.816,-23.9996 755.894,-23.1226 755.894,-23.1226 755.894,-23.1226 760.816,-23.9996 755.105,-27.5528 765.739,-24.8767 765.739,-24.8767"/>
</g>
<!-- Talk -->
<g id="node9" class="node"><title>Talk</title>
<ellipse fill="none" stroke="black" cx="560" cy="-92" rx="28.0882" ry="18"/>
<text text-anchor="middle" x="560" y="-86.4" font-family="Times,serif" font-size="14.00">Talk</text>
</g>
<!-- Event&#45;&gt;Talk -->
<g id="edge5" class="edge"><title>Event&#45;&gt;Talk</title>
<path fill="none" stroke="#da0be2" d="M612.799,-339.754C576.026,-334.151 525.248,-324.127 511,-310 476.15,-275.446 473.878,-249.001 488,-202 498.025,-168.636 521.942,-136.066 539.471,-115.35"/>
<ellipse fill="none" stroke="#da0be2" cx="616.923" cy="-340.364" rx="4.00001" ry="4.00001"/>
<polygon fill="#da0be2" stroke="#da0be2" points="539.51,-115.305 549.464,-110.703 542.788,-111.529 546.066,-107.753 546.066,-107.753 546.066,-107.753 542.788,-111.529 542.668,-104.803 539.51,-115.305 539.51,-115.305"/>
</g>
<!-- User -->
<g id="node10" class="node"><title>User</title>
<ellipse fill="none" stroke="black" cx="642" cy="-256" rx="28.9087" ry="18"/>
<text text-anchor="middle" x="642" y="-250.4" font-family="Times,serif" font-size="14.00">User</text>
</g>
<!-- Event&#45;&gt;User -->
<g id="edge7" class="edge"><title>Event&#45;&gt;User</title>
<path fill="none" stroke="#0e8c88" d="M628.434,-322.848C625.368,-318.89 622.691,-314.561 620.917,-310 617.24,-300.547 619.88,-290.175 624.371,-281.132"/>
<polygon fill="#0e8c88" stroke="#0e8c88" points="628.49,-322.911 631.734,-333.386 631.799,-326.659 635.108,-330.408 635.108,-330.408 635.108,-330.408 631.799,-326.659 638.481,-327.429 628.49,-322.911 628.49,-322.911"/>
<polygon fill="#0e8c88" stroke="#0e8c88" points="624.494,-280.92 633.42,-274.551 627.014,-276.602 629.534,-272.283 629.534,-272.283 629.534,-272.283 627.014,-276.602 625.647,-270.015 624.494,-280.92 624.494,-280.92"/>
<text text-anchor="middle" x="646.042" y="-295.4" font-family="Times,serif" font-size="14.00">attendees</text>
</g>
<!-- Organization -->
<g id="node6" class="node"><title>Organization</title>
<ellipse fill="none" stroke="black" cx="641" cy="-166" rx="60.9184" ry="18"/>
<text text-anchor="middle" x="641" y="-160.4" font-family="Times,serif" font-size="14.00">Organization</text>
</g>
<!-- Organization&#45;&gt;Event -->
<g id="edge11" class="edge"><title>Organization&#45;&gt;Event</title>
<path fill="none" stroke="#415fa8" d="M686.677,-183.142C748.747,-207.556 847.412,-256.712 805,-310 791.542,-326.909 735.782,-336.338 695.699,-341.042"/>
<ellipse fill="none" stroke="#415fa8" cx="682.659" cy="-181.589" rx="4.00001" ry="4.00001"/>
<polygon fill="#415fa8" stroke="#415fa8" points="695.564,-341.057 685.127,-337.692 690.595,-341.611 685.625,-342.165 685.625,-342.165 685.625,-342.165 690.595,-341.611 686.124,-346.637 695.564,-341.057 695.564,-341.057"/>
</g>
<!-- Organization&#45;&gt;Tag -->
<g id="edge14" class="edge"><title>Organization&#45;&gt;Tag</title>
<path fill="none" stroke="#1c58f6" d="M655.557,-141.119C671.934,-114.254 698.403,-70.8329 714.971,-43.6547"/>
<ellipse fill="none" stroke="#1c58f6" cx="653.291" cy="-144.836" rx="4.00002" ry="4.00002"/>
<polygon fill="#1c58f6" stroke="#1c58f6" points="714.976,-43.6465 724.023,-37.4501 717.578,-39.3772 720.181,-35.1079 720.181,-35.1079 720.181,-35.1079 717.578,-39.3772 716.338,-32.7656 714.976,-43.6465 714.976,-43.6465"/>
</g>
<!-- Organization&#45;&gt;Talk -->
<g id="edge12" class="edge"><title>Organization&#45;&gt;Talk</title>
<path fill="none" stroke="#7e4951" d="M614.95,-141.845C604.793,-132.816 593.24,-122.546 583.357,-113.762"/>
<polygon fill="#7e4951" stroke="#7e4951" points="615.146,-142.018 619.63,-152.025 618.883,-145.34 622.62,-148.662 622.62,-148.662 622.62,-148.662 618.883,-145.34 625.609,-145.299 615.146,-142.018 615.146,-142.018"/>
<polygon fill="#7e4951" stroke="#7e4951" points="583.322,-113.73 578.837,-103.723 579.585,-110.409 575.848,-107.087 575.848,-107.087 575.848,-107.087 579.585,-110.409 572.858,-110.45 583.322,-113.73 583.322,-113.73"/>
</g>
<!-- Organization&#45;&gt;User -->
<g id="edge13" class="edge"><title>Organization&#45;&gt;User</title>
<path fill="none" stroke="#001cef" d="M641.311,-194.343C641.43,-204.856 641.567,-216.857 641.686,-227.395"/>
<polygon fill="#001cef" stroke="#001cef" points="641.307,-194.05 645.693,-183.999 641.251,-189.05 641.194,-184.05 641.194,-184.05 641.194,-184.05 641.251,-189.05 636.694,-184.102 641.307,-194.05 641.307,-194.05"/>
<polygon fill="#001cef" stroke="#001cef" points="641.689,-227.615 637.303,-237.665 641.746,-232.614 641.802,-237.614 641.802,-237.614 641.802,-237.614 641.746,-232.614 646.302,-237.563 641.689,-227.615 641.689,-227.615"/>
<text text-anchor="middle" x="667.042" y="-205.4" font-family="Times,serif" font-size="14.00">attendees</text>
</g>
<!-- Role -->
<g id="node7" class="node"><title>Role</title>
<ellipse fill="none" stroke="black" cx="507" cy="-346" rx="28.9157" ry="18"/>
<text text-anchor="middle" x="507" y="-340.4" font-family="Times,serif" font-size="14.00">Role</text>
</g>
<!-- Role&#45;&gt;User -->
<g id="edge16" class="edge"><title>Role&#45;&gt;User</title>
<path fill="none" stroke="#7604c4" d="M503.086,-317.633C503.24,-308.586 505.156,-299.044 511,-292 522.782,-277.797 569.267,-267.863 603.529,-262.297"/>
<polygon fill="#7604c4" stroke="#7604c4" points="503.097,-317.858 499.089,-328.065 503.34,-322.852 503.584,-327.846 503.584,-327.846 503.584,-327.846 503.34,-322.852 508.078,-327.627 503.097,-317.858 503.097,-317.858"/>
<polygon fill="#7604c4" stroke="#7604c4" points="603.837,-262.249 614.411,-265.156 608.778,-261.479 613.718,-260.709 613.718,-260.709 613.718,-260.709 608.778,-261.479 613.025,-256.263 603.837,-262.249 603.837,-262.249"/>
</g>
<!-- Talk&#45;&gt;Comment -->
<g id="edge20" class="edge"><title>Talk&#45;&gt;Comment</title>
<path fill="none" stroke="#2f357b" d="M539.09,-70.6424C532.615,-64.8843 525.267,-58.8665 518,-54 508.471,-47.6183 497.609,-41.678 487.297,-36.5694"/>
<ellipse fill="none" stroke="#2f357b" cx="542.285" cy="-73.563" rx="4.00002" ry="4.00002"/>
<polygon fill="#2f357b" stroke="#2f357b" points="487.05,-36.4507 479.982,-28.0661 482.542,-34.2868 478.035,-32.1228 478.035,-32.1228 478.035,-32.1228 482.542,-34.2868 476.087,-36.1796 487.05,-36.4507 487.05,-36.4507"/>
</g>
<!-- Talk&#45;&gt;Tag -->
<g id="edge19" class="edge"><title>Talk&#45;&gt;Tag</title>
<path fill="none" stroke="#8ed0c1" d="M590.635,-78.025C621.062,-65.1384 667.503,-45.4694 698.298,-32.4269"/>
<ellipse fill="none" stroke="#8ed0c1" cx="586.61" cy="-79.7298" rx="4.00001" ry="4.00001"/>
<polygon fill="#8ed0c1" stroke="#8ed0c1" points="698.498,-32.3422 709.461,-32.5859 703.102,-30.3922 707.706,-28.4422 707.706,-28.4422 707.706,-28.4422 703.102,-30.3922 705.951,-24.2985 698.498,-32.3422 698.498,-32.3422"/>
</g>
<!-- User&#45;&gt;AttendeeEvent -->
<g id="edge28" class="edge"><title>User&#45;&gt;AttendeeEvent</title>
<path fill="none" stroke="#9e048d" d="M676.001,-245.606C696.237,-239.463 722.146,-230.615 744,-220 761.972,-211.271 780.777,-199.344 795.839,-189.015"/>
<ellipse fill="none" stroke="#9e048d" cx="672.098" cy="-246.767" rx="4.00001" ry="4.00001"/>
<polygon fill="#9e048d" stroke="#9e048d" points="796.038,-188.876 806.814,-186.845 800.139,-186.016 804.24,-183.155 804.24,-183.155 804.24,-183.155 800.139,-186.016 801.665,-179.464 796.038,-188.876 796.038,-188.876"/>
</g>
<!-- User&#45;&gt;Comment -->
<g id="edge25" class="edge"><title>User&#45;&gt;Comment</title>
<path fill="none" stroke="#be3ab6" d="M611.046,-241.596C600.151,-235.942 588.312,-228.647 579,-220 522.641,-167.663 479.037,-86.5576 459.018,-45.1952"/>
<ellipse fill="none" stroke="#be3ab6" cx="614.813" cy="-243.467" rx="4.00002" ry="4.00002"/>
<polygon fill="#be3ab6" stroke="#be3ab6" points="458.962,-45.0779 458.727,-34.1145 456.813,-40.5634 454.664,-36.0488 454.664,-36.0488 454.664,-36.0488 456.813,-40.5634 450.601,-37.9832 458.962,-45.0779 458.962,-45.0779"/>
</g>
<!-- User&#45;&gt;Event -->
<g id="edge26" class="edge"><title>User&#45;&gt;Event</title>
<path fill="none" stroke="#6b6695" d="M664.143,-277.191C667.766,-281.681 670.989,-286.697 673,-292 676.52,-301.282 674.154,-311.484 669.998,-320.437"/>
<ellipse fill="none" stroke="#6b6695" cx="661.303" cy="-274.003" rx="4.00002" ry="4.00002"/>
<polygon fill="#6b6695" stroke="#6b6695" points="669.99,-320.452 661.242,-327.065 667.59,-324.839 665.19,-329.225 665.19,-329.225 665.19,-329.225 667.59,-324.839 669.137,-331.385 669.99,-320.452 669.99,-320.452"/>
</g>
<!-- User&#45;&gt;Event -->
<g id="edge27" class="edge"><title>User&#45;&gt;Event</title>
<path fill="none" stroke="#be969b" d="M672.325,-274.364C678.247,-279.26 683.652,-285.154 687,-292 692.253,-302.741 686.811,-313.979 678.854,-323.328"/>
<polygon fill="#be969b" stroke="#be969b" points="672.137,-274.227 666.736,-264.684 668.105,-271.269 664.074,-268.312 664.074,-268.312 664.074,-268.312 668.105,-271.269 661.412,-271.94 672.137,-274.227 672.137,-274.227"/>
<polygon fill="#be969b" stroke="#be969b" points="678.701,-323.487 668.519,-327.56 675.229,-327.086 671.758,-330.684 671.758,-330.684 671.758,-330.684 675.229,-327.086 674.997,-333.808 678.701,-323.487 678.701,-323.487"/>
<text text-anchor="middle" x="745.246" y="-295.4" font-family="Times,serif" font-size="14.00">organization_events</text>
</g>
<!-- User&#45;&gt;Event -->
<g id="edge29" class="edge"><title>User&#45;&gt;Event</title>
<path fill="none" stroke="#db6458" d="M602.861,-260.289C558.715,-265.56 496.017,-278.703 520.138,-310 531.237,-324.402 576.234,-334.063 610.82,-339.522"/>
<polygon fill="#db6458" stroke="#db6458" points="603.126,-260.26 613.558,-263.641 608.096,-259.714 613.066,-259.168 613.066,-259.168 613.066,-259.168 608.096,-259.714 612.575,-254.695 603.126,-260.26 603.126,-260.26"/>
<polygon fill="#db6458" stroke="#db6458" points="610.827,-339.523 620.043,-345.466 615.771,-340.27 620.715,-341.017 620.715,-341.017 620.715,-341.017 615.771,-340.27 621.387,-336.567 610.827,-339.523 610.827,-339.523"/>
<text text-anchor="middle" x="568.431" y="-295.4" font-family="Times,serif" font-size="14.00">attending_events</text>
</g>
<!-- User&#45;&gt;Organization -->
<g id="edge23" class="edge"><title>User&#45;&gt;Organization</title>
<path fill="none" stroke="#e606af" d="M637.978,-229.906C637.573,-226.582 637.228,-223.214 637,-220 636.409,-211.68 636.734,-202.628 637.402,-194.398"/>
<ellipse fill="none" stroke="#e606af" cx="638.533" cy="-233.999" rx="4.00001" ry="4.00001"/>
<polygon fill="#e606af" stroke="#e606af" points="637.428,-194.133 642.906,-184.633 637.929,-189.158 638.429,-184.183 638.429,-184.183 638.429,-184.183 637.929,-189.158 633.951,-183.733 637.428,-194.133 637.428,-194.133"/>
</g>
<!-- User&#45;&gt;Tag -->
<g id="edge22" class="edge"><title>User&#45;&gt;Tag</title>
<path fill="none" stroke="#42bfd7" d="M671.892,-240.688C680.905,-235.226 690.199,-228.282 697,-220 738.185,-169.842 737.279,-88.2991 733.466,-46.1482"/>
<ellipse fill="none" stroke="#42bfd7" cx="668.251" cy="-242.766" rx="4.00002" ry="4.00002"/>
<polygon fill="#42bfd7" stroke="#42bfd7" points="733.454,-46.0303 736.906,-35.622 732.942,-41.0566 732.429,-36.0828 732.429,-36.0828 732.429,-36.0828 732.942,-41.0566 727.953,-36.5437 733.454,-46.0303 733.454,-46.0303"/>
</g>
<!-- User&#45;&gt;Talk -->
<g id="edge24" class="edge"><title>User&#45;&gt;Talk</title>
<path fill="none" stroke="#0a54fb" d="M616.53,-236.77C600.656,-223.921 581.344,-205.259 571,-184 561.338,-164.143 558.919,-139.075 558.729,-120.28"/>
<ellipse fill="none" stroke="#0a54fb" cx="619.939" cy="-239.443" rx="4.00002" ry="4.00002"/>
<polygon fill="#0a54fb" stroke="#0a54fb" points="558.732,-120.025 563.337,-110.073 558.784,-115.026 558.837,-110.026 558.837,-110.026 558.837,-110.026 558.784,-115.026 554.337,-109.978 558.732,-120.025 558.732,-120.025"/>
</g>
<!-- Object -->
<g id="node11" class="node"><title>Object</title>
<ellipse fill="none" stroke="black" cx="261" cy="-445" rx="36.1697" ry="18"/>
<text text-anchor="middle" x="261" y="-439.4" font-family="Times,serif" font-size="14.00">Object</text>
</g>
<!-- Object&#45;&gt;Ability -->
<g id="edge1" class="edge"><title>Object&#45;&gt;Ability</title>
<path fill="none" stroke="black" d="M261,-426.658C261,-410.658 261,-386.811 261,-369.379"/>
<polyline fill="none" stroke="black" points="261,-364.192 261,-369.192 "/>
</g>
<!-- ActiveRecord::Base -->
<g id="node12" class="node"><title>ActiveRecord::Base</title>
<ellipse fill="none" stroke="black" cx="564" cy="-445" rx="88.2033" ry="18"/>
<text text-anchor="middle" x="564" y="-439.4" font-family="Times,serif" font-size="14.00">ActiveRecord::Base</text>
</g>
<!-- ActiveRecord::Base&#45;&gt;AttendeeEvent -->
<g id="edge2" class="edge"><title>ActiveRecord::Base&#45;&gt;AttendeeEvent</title>
<path fill="none" stroke="black" d="M649.699,-440.382C738.308,-431.493 872.411,-402.484 936,-310 967.826,-263.713 901.076,-212.098 858.245,-185.337"/>
<polyline fill="none" stroke="black" points="853.922,-182.669 858.177,-185.295 "/>
</g>
<!-- ActiveRecord::Base&#45;&gt;Comment -->
<g id="edge4" class="edge"><title>ActiveRecord::Base&#45;&gt;Comment</title>
<path fill="none" stroke="black" d="M501.352,-432.252C428.176,-416.7 317,-386.563 317,-347 317,-347 317,-347 317,-91 317,-52.8521 360.368,-34.752 397.007,-26.2674"/>
<polyline fill="none" stroke="black" points="401.897,-25.1818 397.016,-26.2655 "/>
</g>
<!-- ActiveRecord::Base&#45;&gt;Event -->
<g id="edge10" class="edge"><title>ActiveRecord::Base&#45;&gt;Event</title>
<path fill="none" stroke="black" d="M579.503,-427.104C595.06,-410.148 618.992,-384.065 635.289,-366.303"/>
<polyline fill="none" stroke="black" points="638.849,-362.424 635.468,-366.108 "/>
</g>
<!-- ActiveRecord::Base&#45;&gt;Organization -->
<g id="edge15" class="edge"><title>ActiveRecord::Base&#45;&gt;Organization</title>
<path fill="none" stroke="black" d="M533.346,-427.91C510.914,-414.248 482.188,-392.347 469,-364 462.251,-349.493 463.432,-343 469,-328 493.996,-260.665 565.63,-209.953 608.158,-184.741"/>
<polyline fill="none" stroke="black" points="612.687,-182.087 608.373,-184.615 "/>
</g>
<!-- ActiveRecord::Base&#45;&gt;Role -->
<g id="edge17" class="edge"><title>ActiveRecord::Base&#45;&gt;Role</title>
<path fill="none" stroke="black" d="M554.071,-427.104C544.309,-410.491 529.398,-385.115 518.982,-367.39"/>
<polyline fill="none" stroke="black" points="516.436,-363.058 518.97,-367.369 "/>
</g>
<!-- ActiveRecord::Base&#45;&gt;Tag -->
<g id="edge18" class="edge"><title>ActiveRecord::Base&#45;&gt;Tag</title>
<path fill="none" stroke="black" d="M651.304,-442.004C778.039,-436.698 998,-417.354 998,-347 998,-347 998,-347 998,-91 998,-42.7544 833.964,-25.9295 762.56,-20.8911"/>
<polyline fill="none" stroke="black" points="757.172,-20.521 762.16,-20.8638 "/>
</g>
<!-- ActiveRecord::Base&#45;&gt;Talk -->
<g id="edge21" class="edge"><title>ActiveRecord::Base&#45;&gt;Talk</title>
<path fill="none" stroke="black" d="M527.247,-428.586C502.169,-415.635 471.642,-394.339 461,-364 428.898,-272.483 440.921,-230.443 492,-148 502.508,-131.039 520.146,-116.999 534.824,-107.35"/>
<polyline fill="none" stroke="black" points="539.274,-104.498 535.064,-107.196 "/>
</g>
<!-- ActiveRecord::Base&#45;&gt;User -->
<g id="edge30" class="edge"><title>ActiveRecord::Base&#45;&gt;User</title>
<path fill="none" stroke="black" d="M619.054,-430.897C676.949,-413.853 765.075,-377.88 805,-310 833.352,-261.795 732.227,-255.803 676.451,-256.025"/>
<polyline fill="none" stroke="black" points="671.201,-256.064 676.201,-256.027 "/>
</g>
</g>
</svg>
